<svg width="846" height="216" viewBox="0 0 846 216" fill="none" xmlns="http://www.w3.org/2000/svg">
<path d="M179.587 35.3796L117.659 180.994H77.258L46.7827 64.78C44.935 57.6393 43.3294 55.0114 37.707 51.992C28.5167 47.0713 13.3401 42.4692 0 39.6064L0.89981 35.3796H65.9448C74.2223 35.3796 81.6756 40.812 83.5713 50.2182L99.6738 134.488L139.428 35.3796H179.587ZM234.204 35.3796L202.603 180.994H164.379L195.983 35.3796H234.204ZM337.887 133.451C338.045 95.0274 283.983 92.8949 284.336 75.7271C284.465 70.5075 289.509 64.9512 300.551 63.5307C306.02 62.8332 321.13 62.2778 338.245 70.0504L344.941 39.153C335.745 35.8749 323.911 32.7207 309.19 32.7207C271.406 32.7207 244.827 52.5019 244.615 80.8498C244.367 101.818 263.6 113.505 278.063 120.488C292.961 127.62 297.957 132.204 297.888 138.578C297.781 148.349 285.99 152.674 275.028 152.834C255.804 153.134 244.661 147.713 235.772 143.632L228.834 175.553C237.777 179.592 254.258 183.101 271.328 183.28C311.497 183.28 337.768 163.724 337.887 133.451ZM437.659 180.994H473L442.125 35.3796H409.521C402.165 35.3796 395.987 39.5864 393.245 46.0533L335.893 180.994H376.031L383.99 159.243H433.03L437.659 180.994ZM394.996 129.403L415.123 74.7198L426.683 129.403H394.996Z" fill="#1A1F71"/>
<g clip-path="url(#clip0_79_199)">
<path d="M626.099 23.0918H719.559V192.836H626.099V23.0918Z" fill="#FF5F00"/>
<path d="M632.033 107.965C632.033 73.4765 648.054 42.8861 672.68 23.0919C654.582 8.69687 631.737 0 606.814 0C547.768 0 500 48.2835 500 107.965C500 167.645 547.768 215.93 606.813 215.93C631.736 215.93 654.581 207.233 672.68 192.836C648.054 173.343 632.033 142.453 632.033 107.965Z" fill="#EB001B"/>
<path d="M845.658 107.965C845.658 167.645 797.89 215.93 738.845 215.93C713.922 215.93 691.077 207.233 672.978 192.836C697.901 173.044 713.626 142.453 713.626 107.965C713.626 73.4765 697.604 42.8861 672.978 23.0919C691.076 8.69687 713.922 0 738.845 0C797.89 0 845.658 48.584 845.658 107.965Z" fill="#F79E1B"/>
</g>
<defs>
<clipPath id="clip0_79_199">
<rect width="346" height="216" fill="white" transform="translate(500)"/>
</clipPath>
</defs>
</svg>
