<svg width="207" height="120" viewBox="0 0 207 120" fill="none" xmlns="http://www.w3.org/2000/svg">
<g clip-path="url(#clip0_157_932)">
<path d="M8.24041 58.7234V59.762C9.88144 57.7464 11.5797 56.2743 13.3529 55.3237C15.1261 54.3732 17.0976 53.9177 19.3444 53.9177C21.9545 53.8973 24.5174 54.6126 26.7389 55.9817C28.9901 57.3547 30.7765 59.3813 32.0805 62.0328C33.3846 64.6843 34.0366 67.8419 34.0366 71.466C34.0637 73.973 33.6828 76.4678 32.9088 78.8528C32.2419 80.9164 31.1862 82.8337 29.7985 84.5012C28.5065 86.0026 26.9011 87.2031 25.0951 88.0185C23.289 88.8339 21.3262 89.2444 19.3444 89.2211C16.8597 89.2211 14.7686 88.7223 13.071 87.7248C11.3734 86.7273 9.76323 85.2604 8.24041 83.324V96.3967C8.24041 100.245 6.85489 102.151 4.05522 102.151C2.423 102.151 1.32384 101.658 0.788577 100.67C0.253314 99.6819 0 98.2318 0 96.3284V58.785C0 57.1281 0.361248 55.8848 1.07713 55.0773C1.79302 54.2697 2.79967 53.8429 4.05743 53.8429C4.62022 53.823 5.18064 53.9252 5.70008 54.1425C6.21953 54.3598 6.68565 54.687 7.06636 55.1015C7.85273 55.9354 8.24041 57.1611 8.24041 58.7234ZM25.2895 71.3581C25.2895 69.0741 24.9393 67.104 24.2388 65.4478C23.5472 63.8041 22.5692 62.5345 21.3312 61.6587C20.1276 60.7944 18.6813 60.3323 17.1989 60.3385C14.8067 60.3385 12.7692 61.2957 11.1282 63.177C9.48715 65.0584 8.66554 67.8573 8.66554 71.5386C8.66554 74.9998 9.47174 77.6997 11.1194 79.6097C12.767 81.5197 14.7847 82.5098 17.1989 82.5098C18.6369 82.5113 20.0403 82.0686 21.2167 81.2424C22.437 80.404 23.4304 79.1476 24.1816 77.4687C24.9327 75.7898 25.2895 73.75 25.2895 71.3581Z" fill="#808284"/>
<path d="M34.9882 83.9335V46.159C34.9882 44.4229 35.3891 43.096 36.1622 42.1982C36.9354 41.3005 37.9751 40.8626 39.2945 40.8626C40.6139 40.8626 41.6536 41.3027 42.4642 42.1828C43.2748 43.063 43.6845 44.3986 43.6845 46.159V83.9335C43.6845 85.7092 43.266 87.0141 42.4576 87.8942C42.056 88.3281 41.5657 88.6705 41.0199 88.8983C40.4741 89.1261 39.8857 89.2339 39.2945 89.2145C38.7066 89.2353 38.1217 89.1231 37.5834 88.886C37.0452 88.649 36.5676 88.2934 36.1864 87.8458C35.3891 86.9393 34.9882 85.6366 34.9882 83.9335Z" fill="#808284"/>
<path d="M67.3132 84.3098V83.1898C66.3506 84.4251 65.2469 85.5439 64.0245 86.5234C62.8901 87.4004 61.6098 88.0708 60.2424 88.5038C58.7344 88.9727 57.1606 89.1956 55.5815 89.1639C53.6176 89.1926 51.6768 88.7392 49.9293 87.8437C48.3206 87.0307 46.975 85.7796 46.0481 84.235C44.9775 82.3925 44.4408 79.7381 44.4379 76.2717V59.038C44.4379 57.2909 44.8277 55.9971 45.6053 55.1433C46.3829 54.2895 47.4292 53.8429 48.72 53.8429C50.0108 53.8429 51.1011 54.2829 51.9051 55.1455C52.7091 56.0081 53.1056 57.3195 53.1056 59.038V72.9645C53.0774 74.6713 53.2526 76.3754 53.6277 78.0408C53.9625 79.4073 54.5858 80.4855 55.4691 81.26C56.3524 82.0346 57.5463 82.4284 59.0662 82.4284C60.5498 82.4168 61.9951 81.9565 63.2117 81.1082C64.4822 80.2851 65.4742 79.0978 66.0577 77.702C66.5467 76.4727 66.7919 73.7786 66.7934 69.6198V59.038C66.7934 57.3195 67.2009 56.0235 67.9983 55.1455C68.4037 54.7183 68.8948 54.3815 69.4395 54.157C69.9842 53.9325 70.5702 53.8255 71.1592 53.8429C72.4632 53.8429 73.5073 54.2829 74.3069 55.1433C75.1065 56.0037 75.4721 57.2909 75.4721 59.038V84.2526C75.4721 85.9051 75.1087 87.1615 74.3443 87.9823C73.9635 88.378 73.5058 88.6919 72.9994 88.9049C72.4929 89.1179 71.9482 89.2254 71.3988 89.2208C70.8493 89.2163 70.3065 89.0998 69.8036 88.8785C69.3007 88.6573 68.8483 88.3358 68.474 87.9339C67.6987 87.0669 67.3132 85.8721 67.3132 84.3098Z" fill="#808284"/>
<path d="M110.159 60.2087V85.4914C110.159 88.3806 109.861 90.878 109.249 92.9596C108.636 95.0412 107.63 96.7685 106.277 98.1108C104.925 99.453 103.127 100.496 100.922 101.158C98.7175 101.821 95.9861 102.144 92.7217 102.144C89.7172 102.144 87.0343 101.715 84.6707 100.881C82.3072 100.047 80.4855 98.9601 79.219 97.6245C77.9524 96.2888 77.2916 94.918 77.2916 93.5163C77.2801 93.0316 77.3713 92.5499 77.5592 92.1028C77.7471 91.6557 78.0275 91.2533 78.3819 90.922C79.0934 90.2571 80.0356 89.8942 81.0098 89.9098C82.2786 89.9098 83.3997 90.4864 84.3557 91.6196C84.8183 92.1873 85.3095 92.7682 85.8095 93.3623C86.2915 93.9333 86.8478 94.4373 87.4638 94.8608C88.1282 95.3022 88.8704 95.6136 89.6511 95.7783C90.6107 96.0002 91.5936 96.1058 92.5785 96.093C94.8297 96.093 96.5779 95.7769 97.8232 95.1446C99.0656 94.5109 99.9423 93.6329 100.44 92.5041C100.94 91.3571 101.238 90.1326 101.321 88.8845C101.403 87.595 101.462 85.5112 101.5 82.6595C100.167 84.5408 98.625 85.9755 96.8738 86.9459C95.1227 87.9163 93.0323 88.4202 90.6049 88.4202C87.6907 88.4202 85.1509 87.6786 82.9658 86.1823C80.7807 84.6861 79.1198 82.6177 77.9348 79.942C76.7497 77.2663 76.1924 74.1769 76.1924 70.665C76.1596 68.266 76.5167 65.8776 77.2497 63.5929C77.89 61.6288 78.9311 59.8186 80.3071 58.2767C81.5686 56.8714 83.1216 55.7578 84.858 55.0135C86.6574 54.2609 88.5926 53.8864 90.5432 53.9133C93.0081 53.9133 95.1491 54.371 96.962 55.3193C98.7748 56.2677 100.438 57.7398 101.989 59.7576V58.576C101.989 57.0731 102.361 55.9113 103.103 55.0817C103.466 54.6777 103.911 54.3573 104.41 54.1426C104.909 53.9279 105.448 53.8241 105.991 53.8385C107.658 53.8385 108.784 54.3864 109.341 55.4778C109.899 56.5692 110.159 58.1491 110.159 60.2087ZM84.9306 71.2239C84.9306 74.7446 85.7038 77.4181 87.2457 79.218C88.7876 81.018 90.7833 81.9267 93.2217 81.9267C94.6684 81.9258 96.0862 81.5228 97.3166 80.7627C98.6118 79.9948 99.6515 78.8242 100.458 77.2641C101.264 75.704 101.669 73.8028 101.669 71.5782C101.669 68.0355 100.874 65.2784 99.3211 63.2958C97.7682 61.3133 95.7064 60.3341 93.1534 60.3341C90.6673 60.3341 88.6775 61.2803 87.184 63.1726C85.6862 65.0584 84.9306 67.7539 84.9306 71.2239Z" fill="#808284"/>
<path d="M182.476 10.8182C180.163 8.59354 176.54 9.01822 174.716 11.6213C174.432 12.0284 174.994 13.0208 174.716 13.4146C175.133 12.799 175.679 12.2821 176.317 11.9003C176.955 11.5185 177.669 11.281 178.409 11.2047C179.149 11.1283 179.896 11.2149 180.599 11.4583C181.302 11.7018 181.943 12.0962 182.476 12.6137C182.186 12.332 182.782 11.113 182.476 10.8182Z" fill="#00ADEE"/>
<path d="M168.209 8.36248C169.618 6.49221 171.44 4.97251 173.533 3.92204C178.185 1.5522 183.159 2.6282 187.298 5.54595C187.025 5.35231 187.589 3.95505 187.298 3.75041C183.159 0.83046 178.185 -0.243342 173.533 2.1287C171.439 3.1781 169.617 4.69799 168.209 6.56914C167.921 6.96741 168.489 7.9774 168.209 8.36248Z" fill="#00ADEE"/>
<path d="M184.904 7.39212C183.616 6.35216 182.101 5.63199 180.481 5.29073C176.835 4.50958 173.705 6.30952 171.478 9.11505C171.181 9.48912 171.764 10.5497 171.478 10.9106C173.705 8.10506 176.835 6.30512 180.481 7.08626C182.101 7.42771 183.617 8.14952 184.904 9.19206C184.617 8.95221 185.205 7.65177 184.904 7.39872V7.39212Z" fill="#00ADEE"/>
<path d="M186.056 35.597L179.802 19.3139L178.897 16.9529V19.6396C180.232 18.7792 179.981 17.2742 179.972 15.8835C179.972 14.6073 179.542 13.243 177.976 13.2298C176.41 13.2166 175.994 14.6051 175.983 15.8835C175.983 17.2632 175.716 18.799 177.055 19.6396V16.9485L174.456 23.7148L172.753 28.1552C172.64 28.5601 172.493 28.9546 172.313 29.3346C172.278 29.3918 172.256 29.5965 172.198 29.6295C171.967 29.7703 170.921 29.3874 170.604 29.3258C160.923 27.3915 150.872 28.7557 142.058 33.2003C133.245 37.6448 126.178 44.9131 121.987 53.8428C118.022 62.266 116.972 71.9281 118.176 81.128C120.654 100.014 135.622 115.584 154.411 118.83C163.765 120.461 173.397 119.039 181.878 114.774C190.36 110.509 197.241 103.628 201.501 95.1512C205.779 86.662 206.988 76.9252 205.907 67.5338C204.672 57.1202 199.783 47.4805 192.109 40.3257C190.228 38.5817 188.203 36.9999 186.056 35.597C186.15 35.6586 186.042 36.7962 186.042 36.9437C186.042 37.0911 185.913 38.1957 186.056 38.2903C194.382 43.7302 200.654 51.7885 203.88 61.19C205.508 65.9957 206.464 71.2349 206.045 76.3135C205.67 80.8651 204.588 85.3305 202.836 89.549C195.787 106.492 178.489 117.494 160.154 116.746C141.898 115.994 125.571 103.618 119.943 86.2505C118.56 81.9839 117.646 76.9142 117.872 72.8104C118.129 68.1492 119.129 63.5587 120.833 59.2119C124.155 50.7427 130.013 43.5047 137.607 38.4868C145.202 33.4688 154.162 30.9157 163.264 31.1764C164.845 31.225 166.423 31.3609 167.989 31.5835C168.723 31.6861 169.457 31.8079 170.192 31.9487C170.476 32.0037 171.98 32.5098 172.174 32.3668C172.289 32.281 172.366 31.8695 172.414 31.7419L172.98 30.2654L176.306 21.5914L177.053 19.6396C177.152 19.3822 177.218 17.0497 177.053 16.9485C176.744 16.7738 176.485 16.5229 176.3 16.2198C176.115 15.9167 176.011 15.5714 175.998 15.2168V17.8573C176.181 15.3642 179.771 15.3532 179.963 17.8573V15.2168C179.946 15.5715 179.839 15.9163 179.653 16.219C179.467 16.5217 179.208 16.7726 178.899 16.9485C178.725 17.0585 178.804 19.3954 178.899 19.6396L185.15 35.9227L186.058 38.2859C185.758 37.518 186.351 36.3892 186.056 35.597Z" fill="#00ADEE"/>
<path d="M124.234 83.2844V59.1415C124.234 57.8916 124.52 56.941 125.089 56.3227C125.367 56.0124 125.711 55.7671 126.095 55.604C126.479 55.4408 126.894 55.364 127.311 55.3787C127.733 55.3644 128.153 55.4401 128.543 55.6006C128.933 55.7611 129.284 56.0027 129.573 56.3095C130.144 56.93 130.435 57.8806 130.435 59.1415V83.2844C130.435 84.5518 130.144 85.5068 129.573 86.1273C129.287 86.4381 128.936 86.6831 128.546 86.8453C128.155 87.0075 127.734 87.0831 127.311 87.0669C126.897 87.0788 126.486 87.0005 126.106 86.8374C125.725 86.6744 125.385 86.4306 125.108 86.1229C124.511 85.487 124.234 84.5496 124.234 83.2844Z" fill="#00ADEE"/>
<path d="M146.407 59.1084L158.356 77.1518V58.9456C158.356 57.764 158.608 56.8684 159.119 56.2743C159.386 55.992 159.709 55.7671 160.066 55.6134C160.424 55.4597 160.809 55.3805 161.198 55.3805C161.587 55.3805 161.972 55.4597 162.33 55.6134C162.687 55.7671 163.01 55.992 163.277 56.2743C163.802 56.8684 164.064 57.764 164.064 58.9456V83.0357C164.064 85.7334 162.931 87.0669 160.702 87.0669C160.197 87.0757 159.694 86.996 159.215 86.8314C158.75 86.659 158.322 86.3999 157.953 86.0679C157.547 85.7005 157.184 85.2886 156.87 84.8401C156.53 84.3802 156.209 83.9027 155.874 83.4142L144.199 65.5688V83.5176C144.199 84.686 143.933 85.5772 143.384 86.1713C143.113 86.4548 142.787 86.6804 142.426 86.8346C142.065 86.9888 141.677 87.0683 141.284 87.0683C140.892 87.0683 140.503 86.9888 140.142 86.8346C139.781 86.6804 139.455 86.4548 139.184 86.1713C138.66 85.5618 138.384 84.6838 138.384 83.5198V59.8874C138.355 59.0857 138.469 58.2852 138.724 57.5241C138.993 56.8861 139.455 56.3477 140.045 55.9838C140.632 55.5916 141.322 55.3825 142.028 55.3831C142.52 55.3717 143.01 55.4679 143.462 55.6648C143.855 55.8359 144.209 56.086 144.501 56.3997C144.844 56.7621 145.151 57.1571 145.418 57.5791C145.75 58.0698 146.065 58.5803 146.407 59.1084Z" fill="#00ADEE"/>
<path d="M180.02 59.1085L191.972 77.1518V58.9456C191.972 57.764 192.219 56.8684 192.73 56.2743C192.985 55.9834 193.303 55.7534 193.659 55.601C194.015 55.4487 194.4 55.378 194.787 55.3942C195.182 55.3786 195.575 55.4494 195.939 55.6014C196.303 55.7534 196.629 55.9831 196.895 56.2743C197.415 56.8684 197.658 57.764 197.658 58.9456V83.0357C197.658 85.7334 196.556 87.0669 194.316 87.0669C193.804 87.0747 193.294 86.9951 192.809 86.8315C192.347 86.6593 191.922 86.4001 191.558 86.0679C191.156 85.7012 190.797 85.2892 190.49 84.8401C190.155 84.3802 189.807 83.9027 189.472 83.4142L177.822 65.5689V83.5176C177.822 84.6861 177.542 85.5772 177 86.1713C176.73 86.4533 176.405 86.6776 176.045 86.8309C175.686 86.9842 175.299 87.0632 174.908 87.0632C174.517 87.0632 174.13 86.9842 173.77 86.8309C173.411 86.6776 173.086 86.4533 172.815 86.1713C172.275 85.5618 172.011 84.6839 172.011 83.5198V59.8874C171.98 59.086 172.094 58.2855 172.346 57.5242C172.616 56.8863 173.078 56.348 173.668 55.9839C174.255 55.5926 174.944 55.3835 175.65 55.3832C176.138 55.3705 176.623 55.4667 177.069 55.6648C177.471 55.8278 177.831 56.079 178.124 56.3997C178.47 56.7631 178.782 57.158 179.055 57.5792C179.353 58.0699 179.677 58.5804 180.02 59.1085Z" fill="#00ADEE"/>
</g>
<defs>
<clipPath id="clip0_157_932">
<rect width="206.279" height="118.644" fill="white" transform="translate(0 0.830475)"/>
</clipPath>
</defs>
</svg>
