<svg width="172" height="44" viewBox="0 0 172 44" fill="none" xmlns="http://www.w3.org/2000/svg">
<g clip-path="url(#clip0_173_517)">
<path d="M36.5118 7.20667L23.9212 36.8689H15.7073L9.51138 13.1956C9.13572 11.7411 8.80929 11.2057 7.6662 10.5907C5.79772 9.58831 2.71217 8.65084 0 8.06768L0.18294 7.20667H13.4072C15.0901 7.20667 16.6054 8.31327 16.9909 10.2293L20.2646 27.3954L28.3471 7.20667H36.5118ZM47.6159 7.20667L41.1912 36.8689H33.4198L39.8452 7.20667H47.6159ZM68.6957 27.1842C68.7278 19.3571 57.7365 18.9227 57.8083 15.4256C57.8345 14.3624 58.86 13.2305 61.1049 12.9412C62.2168 12.7991 65.2888 12.6859 68.7685 14.2692L70.1298 7.97532C68.2602 7.30756 65.8542 6.66504 62.8613 6.66504C55.1795 6.66504 49.7757 10.6945 49.7326 16.4691C49.6822 20.7404 53.5924 23.1211 56.5329 24.5436C59.5618 25.9964 60.5775 26.9302 60.5635 28.2286C60.5418 30.219 58.1445 31.1 55.9157 31.1326C52.0074 31.1937 49.742 30.0894 47.9347 29.2581L46.5242 35.7605C48.3424 36.5833 51.6931 37.2981 55.1636 37.3345C63.3304 37.3345 68.6715 33.3509 68.6957 27.1842ZM88.9803 36.8689H96.1655L89.8883 7.20667H83.2596C81.764 7.20667 80.508 8.06361 79.9505 9.38094L68.2903 36.8689H76.4507L78.0689 32.4381H88.0392L88.9803 36.8689ZM80.3065 26.3596L84.3985 15.2204L86.7488 26.3596H80.3065Z" fill="#1A1F71"/>
<path d="M127.292 4.7041H146.293V39.2816H127.292V4.7041Z" fill="#FF5F00"/>
<path d="M128.498 21.9929C128.498 14.9674 131.756 8.73606 136.762 4.70391C133.083 1.77158 128.438 0 123.371 0C111.366 0 101.655 9.83553 101.655 21.9929C101.655 34.1499 111.366 43.9857 123.371 43.9857C128.438 43.9857 133.083 42.2141 136.762 39.2814C131.756 35.3106 128.498 29.0182 128.498 21.9929Z" fill="#EB001B"/>
<path d="M171.93 21.9929C171.93 34.1499 162.219 43.9857 150.214 43.9857C145.147 43.9857 140.502 42.2141 136.823 39.2814C141.89 35.2497 145.087 29.0182 145.087 21.9929C145.087 14.9674 141.829 8.73606 136.823 4.70391C140.502 1.77158 145.147 0 150.214 0C162.219 0 171.93 9.89674 171.93 21.9929Z" fill="#F79E1B"/>
</g>
<defs>
<clipPath id="clip0_173_517">
<rect width="172" height="44" fill="white"/>
</clipPath>
</defs>
</svg>
